<svg xmlns="http://www.w3.org/2000/svg" width="256" height="256" viewBox="0 0 100 100"><rect width="100" height="100" rx="20" fill="#9c0e06"></rect><path fill="#fff" d="M15.90 87.73L15.90 80.03L65.07 24.70Q67.05 22.50 71.23 21.07L71.23 21.07L71.12 20.63Q68.04 21.29 64.52 21.29L64.52 21.29L26.13 21.29L26.13 37.02L16.01 37.02L16.01 12.27L83.55 12.27L83.55 19.86L34.05 75.52Q33.06 76.73 31.25 77.61Q29.43 78.49 28.00 78.82L28.00 78.82L28.11 79.37Q29.43 79.04 31.30 78.82Q33.17 78.60 34.82 78.60L34.82 78.60L73.98 78.60L73.98 62.98L84.10 62.98L84.10 87.73L15.90 87.73Z"></path></svg>